<svg width="480" height="76" viewBox="0 0 480 76" fill="none" xmlns="http://www.w3.org/2000/svg">
<path d="M460.561 61.484C457.704 61.484 455.118 61.0052 452.805 60.0476C450.492 59.0444 448.519 57.6992 446.887 56.012C445.254 54.2792 443.984 52.3184 443.077 50.1296C442.215 47.8952 441.784 45.5468 441.784 43.0844C441.784 39.6644 442.533 36.5408 444.029 33.7136C445.571 30.8864 447.748 28.6292 450.56 26.942C453.418 25.2092 456.774 24.3428 460.629 24.3428C464.529 24.3428 467.863 25.2092 470.63 26.942C473.396 28.6292 475.505 30.8864 476.957 33.7136C478.453 36.4952 479.202 39.5048 479.202 42.7424C479.202 43.2896 479.179 43.8596 479.134 44.4524C479.088 44.9996 479.043 45.4556 478.998 45.8204H451.445C451.626 47.6444 452.148 49.2404 453.01 50.6084C453.917 51.9764 455.05 53.0252 456.411 53.7548C457.817 54.4388 459.314 54.7808 460.901 54.7808C462.715 54.7808 464.416 54.3476 466.004 53.4812C467.636 52.5692 468.747 51.3836 469.337 49.9244L477.161 52.1132C476.299 53.9372 475.052 55.556 473.419 56.9696C471.832 58.3832 469.949 59.5004 467.772 60.3212C465.595 61.0964 463.192 61.484 460.561 61.484ZM451.241 40.0064H469.881C469.7 38.1824 469.178 36.6092 468.317 35.2868C467.5 33.9188 466.412 32.87 465.051 32.1404C463.69 31.3652 462.171 30.9776 460.493 30.9776C458.86 30.9776 457.364 31.3652 456.003 32.1404C454.688 32.87 453.599 33.9188 452.737 35.2868C451.921 36.6092 451.422 38.1824 451.241 40.0064Z" fill="white"/>
<path d="M422.561 61.484C419.658 61.484 417.05 61.0052 414.737 60.0476C412.424 59.0444 410.451 57.6764 408.818 55.9436C407.185 54.1652 405.916 52.1588 405.008 49.9244C404.147 47.69 403.716 45.3416 403.716 42.8792C403.716 39.5048 404.464 36.4268 405.961 33.6452C407.503 30.818 409.68 28.5608 412.492 26.8736C415.304 25.1864 418.637 24.3428 422.493 24.3428C426.348 24.3428 429.658 25.1864 432.425 26.8736C435.192 28.5608 437.255 30.7724 438.616 33.5084L429.704 36.2444C428.933 34.922 427.912 33.9188 426.642 33.2348C425.373 32.5052 423.967 32.1404 422.424 32.1404C420.701 32.1404 419.114 32.5964 417.662 33.5084C416.256 34.3748 415.145 35.6288 414.329 37.2704C413.512 38.8664 413.104 40.736 413.104 42.8792C413.104 44.9768 413.512 46.8464 414.329 48.488C415.19 50.084 416.324 51.3608 417.73 52.3184C419.136 53.2304 420.701 53.6864 422.424 53.6864C423.513 53.6864 424.533 53.504 425.486 53.1392C426.484 52.7744 427.368 52.2728 428.139 51.6344C428.91 50.996 429.477 50.2664 429.84 49.4456L438.752 52.1816C437.936 53.96 436.734 55.556 435.146 56.9696C433.604 58.3832 431.767 59.5004 429.636 60.3212C427.55 61.0964 425.191 61.484 422.561 61.484Z" fill="white"/>
<path d="M388.621 60.8V24.9584H397.737V60.8H388.621ZM388.621 19.9652V10.868H397.737V19.9652H388.621Z" fill="white"/>
<path d="M360.809 60.8L347.679 24.9584H357.136L366.116 52.4552L375.164 24.9584H383.804L370.742 60.8H360.809Z" fill="white"/>
<path d="M346.134 32.8928C343.367 32.8928 340.895 33.44 338.718 34.5344C336.541 35.5832 334.977 37.1108 334.024 39.1172V60.8H324.908V24.9584H333.276V32.6192C334.546 30.1568 336.156 28.2188 338.106 26.8052C340.056 25.3916 342.12 24.6164 344.297 24.4796C344.796 24.4796 345.181 24.4796 345.453 24.4796C345.725 24.4796 345.952 24.5024 346.134 24.548V32.8928Z" fill="white"/>
<path d="M300.714 61.484C297.856 61.484 295.271 61.0052 292.958 60.0476C290.645 59.0444 288.672 57.6992 287.039 56.012C285.406 54.2792 284.137 52.3184 283.229 50.1296C282.368 47.8952 281.937 45.5468 281.937 43.0844C281.937 39.6644 282.685 36.5408 284.182 33.7136C285.724 30.8864 287.901 28.6292 290.713 26.942C293.57 25.2092 296.926 24.3428 300.782 24.3428C304.682 24.3428 308.016 25.2092 310.782 26.942C313.549 28.6292 315.658 30.8864 317.109 33.7136C318.606 36.4952 319.354 39.5048 319.354 42.7424C319.354 43.2896 319.332 43.8596 319.286 44.4524C319.241 44.9996 319.195 45.4556 319.15 45.8204H291.597C291.779 47.6444 292.3 49.2404 293.162 50.6084C294.069 51.9764 295.203 53.0252 296.564 53.7548C297.97 54.4388 299.466 54.7808 301.054 54.7808C302.868 54.7808 304.569 54.3476 306.156 53.4812C307.789 52.5692 308.9 51.3836 309.49 49.9244L317.313 52.1132C316.452 53.9372 315.204 55.556 313.572 56.9696C311.984 58.3832 310.102 59.5004 307.925 60.3212C305.748 61.0964 303.344 61.484 300.714 61.484ZM291.393 40.0064H310.034C309.852 38.1824 309.331 36.6092 308.469 35.2868C307.653 33.9188 306.564 32.87 305.204 32.1404C303.843 31.3652 302.324 30.9776 300.646 30.9776C299.013 30.9776 297.516 31.3652 296.155 32.1404C294.84 32.87 293.752 33.9188 292.89 35.2868C292.074 36.6092 291.575 38.1824 291.393 40.0064Z" fill="white"/>
<path d="M272.121 24.9584C271.804 24.6392 271.214 24.206 270.352 23.6588C269.536 23.1116 268.516 22.5872 267.291 22.0856C266.112 21.584 264.819 21.1508 263.413 20.786C262.007 20.3756 260.579 20.1704 259.127 20.1704C256.587 20.1704 254.66 20.6492 253.345 21.6068C252.075 22.5644 251.44 23.9096 251.44 25.6424C251.44 26.9648 251.848 28.0136 252.664 28.7888C253.481 29.564 254.705 30.2252 256.338 30.7724C257.971 31.3196 260.012 31.9124 262.461 32.5508C265.636 33.326 268.38 34.2836 270.693 35.4236C273.051 36.518 274.843 37.9772 276.067 39.8012C277.337 41.5796 277.972 43.9508 277.972 46.9148C277.972 49.514 277.496 51.7484 276.543 53.618C275.591 55.442 274.276 56.924 272.597 58.064C270.919 59.204 269.014 60.0476 266.883 60.5948C264.751 61.0964 262.483 61.3472 260.08 61.3472C257.676 61.3472 255.272 61.0964 252.868 60.5948C250.465 60.0932 248.151 59.3864 245.929 58.4744C243.707 57.5168 241.666 56.3768 239.806 55.0544L243.956 46.9148C244.364 47.3252 245.09 47.8724 246.133 48.5564C247.176 49.1948 248.446 49.856 249.943 50.54C251.44 51.1784 253.072 51.7256 254.841 52.1816C256.61 52.6376 258.402 52.8656 260.216 52.8656C262.756 52.8656 264.683 52.4324 265.998 51.566C267.314 50.6996 267.971 49.4684 267.971 47.8724C267.971 46.4132 267.45 45.2732 266.407 44.4524C265.363 43.6316 263.912 42.9248 262.053 42.332C260.193 41.6936 257.993 41.0096 255.454 40.28C252.415 39.4136 249.875 38.456 247.834 37.4072C245.793 36.3128 244.274 34.9448 243.276 33.3032C242.278 31.6616 241.779 29.6096 241.779 27.1472C241.779 23.8184 242.55 21.0368 244.092 18.8024C245.68 16.5224 247.811 14.8124 250.487 13.6724C253.163 12.4868 256.134 11.894 259.399 11.894C261.667 11.894 263.799 12.1448 265.794 12.6464C267.835 13.148 269.74 13.8092 271.509 14.63C273.278 15.4508 274.865 16.34 276.271 17.2976L272.121 24.9584Z" fill="white"/>
<path d="M218.264 61.484C215.361 61.484 212.753 61.0052 210.44 60.0476C208.127 59.0444 206.154 57.6764 204.521 55.9436C202.934 54.2108 201.709 52.2272 200.848 49.9928C199.986 47.7584 199.555 45.41 199.555 42.9476C199.555 40.4396 199.986 38.0684 200.848 35.834C201.709 33.5996 202.934 31.616 204.521 29.8832C206.154 28.1504 208.127 26.8052 210.44 25.8476C212.753 24.8444 215.361 24.3428 218.264 24.3428C221.166 24.3428 223.751 24.8444 226.019 25.8476C228.332 26.8052 230.305 28.1504 231.938 29.8832C233.571 31.616 234.795 33.5996 235.612 35.834C236.473 38.0684 236.904 40.4396 236.904 42.9476C236.904 45.41 236.473 47.7584 235.612 49.9928C234.795 52.2272 233.571 54.2108 231.938 55.9436C230.351 57.6764 228.4 59.0444 226.087 60.0476C223.774 61.0052 221.166 61.484 218.264 61.484ZM208.943 42.9476C208.943 45.0452 209.351 46.9148 210.168 48.5564C210.984 50.1524 212.095 51.4064 213.501 52.3184C214.907 53.2304 216.495 53.6864 218.264 53.6864C219.987 53.6864 221.552 53.2304 222.958 52.3184C224.364 51.3608 225.475 50.084 226.291 48.488C227.153 46.8464 227.584 44.9768 227.584 42.8792C227.584 40.8272 227.153 38.9804 226.291 37.3388C225.475 35.6972 224.364 34.4204 222.958 33.5084C221.552 32.5964 219.987 32.1404 218.264 32.1404C216.495 32.1404 214.907 32.6192 213.501 33.5768C212.095 34.4888 210.984 35.7656 210.168 37.4072C209.351 39.0032 208.943 40.85 208.943 42.9476Z" fill="white"/>
<path d="M197.517 58.9532C196.746 59.2724 195.816 59.6372 194.728 60.0476C193.639 60.458 192.46 60.7772 191.19 61.0052C189.966 61.2788 188.718 61.4156 187.449 61.4156C185.77 61.4156 184.228 61.1192 182.822 60.5264C181.416 59.9336 180.283 58.9988 179.421 57.722C178.604 56.3996 178.196 54.6896 178.196 52.592V32.0036H173.502V24.9584H178.196V13.3304H187.312V24.9584H194.796V32.0036H187.312V49.514C187.358 50.7452 187.698 51.6344 188.333 52.1816C188.968 52.7288 189.762 53.0024 190.714 53.0024C191.666 53.0024 192.596 52.8428 193.503 52.5236C194.41 52.2044 195.136 51.9308 195.68 51.7028L197.517 58.9532Z" fill="white"/>
<path d="M133.893 47.3936V24.9584H143.01V45.41C143.01 48.146 143.509 50.2208 144.506 51.6344C145.504 53.0024 146.978 53.6864 148.928 53.6864C150.108 53.6864 151.264 53.4584 152.398 53.0024C153.577 52.5008 154.643 51.7712 155.595 50.8136C156.593 49.856 157.432 48.6476 158.113 47.1884V24.9584H167.229V50.54C167.229 51.4976 167.388 52.1816 167.705 52.592C168.068 53.0024 168.635 53.2532 169.406 53.3444V60.8C168.499 60.9368 167.728 61.028 167.093 61.0736C166.503 61.1648 165.959 61.2104 165.46 61.2104C163.827 61.2104 162.489 60.8456 161.446 60.116C160.448 59.3408 159.859 58.292 159.677 56.9696L159.473 54.0968C157.886 56.5136 155.845 58.3604 153.35 59.6372C150.856 60.8684 148.112 61.484 145.119 61.484C141.445 61.484 138.656 60.2984 136.751 57.9272C134.846 55.5104 133.893 51.9992 133.893 47.3936Z" fill="white"/>
<path d="M103.204 12.236H112.728L130.484 60.8H120.824L116.334 48.6932H99.462L95.04 60.8H85.3795L103.204 12.236ZM114.633 42.0584L107.966 22.0172L101.027 42.0584H114.633Z" fill="white"/>
<g clip-path="url(#clip0_21_585)">
<path d="M43.3465 5.58124H13.5515C12.199 5.58124 11.1025 6.68368 11.1025 8.04352C11.1025 9.40335 12.199 10.5058 13.5515 10.5058H26.2817C23.6008 12.1944 21.1796 14.2677 19.0947 16.66H2.44902C1.09651 16.6602 0 17.7628 0 19.1226C0 20.4824 1.09651 21.5849 2.44902 21.5849H15.5519C12.7264 26.4026 11.1024 32.0138 11.1024 37.9998C11.1024 44.9651 13.2991 51.4242 17.0316 56.7144H10.0829C8.73041 56.7144 7.63391 57.8168 7.63391 59.1767C7.63391 60.5365 8.73041 61.639 10.0829 61.639H21.3062C22.8368 63.0826 24.5031 64.3736 26.2817 65.4937H2.70162C1.34911 65.4937 0.252608 66.5962 0.252608 67.956C0.252608 69.3158 1.34911 70.4183 2.70162 70.4183H43.3465C61.126 70.4183 75.5904 55.8753 75.5904 37.9997C75.5904 20.1241 61.1259 5.58124 43.3465 5.58124ZM43.3465 65.494C28.2679 65.494 16.0007 53.1604 16.0007 38C16.0007 22.8396 28.2679 10.5059 43.3465 10.5059C58.425 10.5059 70.6922 22.8396 70.6922 37.9998C70.6922 53.1601 58.4251 65.494 43.3465 65.494Z" fill="#D10014"/>
<path d="M43.3465 17.8878C32.3164 17.8878 23.3427 26.9101 23.3427 38C23.3427 44.6133 26.5344 50.491 31.4502 54.1589C31.4952 54.1972 31.5399 54.2358 31.5885 54.271C31.6431 54.3109 31.6991 54.3482 31.7556 54.3829C35.0279 56.7298 39.0296 58.1121 43.3465 58.1121C47.6635 58.1121 51.665 56.7298 54.9374 54.3829C54.9941 54.3482 55.0499 54.3109 55.1046 54.271C55.153 54.2355 55.1979 54.1969 55.2429 54.1589C60.1585 50.491 63.3504 44.6135 63.3504 38C63.3504 26.9102 54.3767 17.8878 43.3465 17.8878ZM45.7956 23.0132C50.5749 23.8 54.6067 26.8489 56.7636 31.0279L50.4216 33.0998C49.3201 31.4968 47.6945 30.2857 45.7957 29.717V23.0132H45.7956ZM47.0441 37.9998C47.0441 40.0498 45.3854 41.7175 43.3465 41.7175C41.3077 41.7175 39.649 40.0499 39.649 37.9998C39.649 35.9499 41.3077 34.2822 43.3465 34.2822C45.3854 34.2822 47.0441 35.9499 47.0441 37.9998ZM40.8974 23.0132V29.717C38.9983 30.2857 37.373 31.4968 36.2713 33.0998L29.9295 31.0279C32.0865 26.8489 36.1183 23.7999 40.8974 23.0132ZM32.6084 48.6706C29.9099 45.9257 28.2408 42.1552 28.2408 37.9998C28.2408 37.2217 28.2996 36.4571 28.4124 35.7102L34.7562 37.7827C34.7545 37.8551 34.7506 37.927 34.7506 37.9998C34.7506 39.9735 35.4135 41.7936 36.5252 43.2502L32.6084 48.6706ZM43.3465 53.1874C40.9104 53.1874 38.6075 52.604 36.5677 51.5696L40.4855 46.1483C41.381 46.4672 42.3436 46.6425 43.3465 46.6425C44.3494 46.6425 45.312 46.4672 46.2076 46.1483L50.1253 51.5696C48.0856 52.6037 45.7827 53.1874 43.3465 53.1874ZM54.0845 48.6706L50.1677 43.2504C51.2794 41.7938 51.9423 39.9736 51.9423 38C51.9423 37.9271 51.9388 37.8553 51.9367 37.7828L58.2805 35.7103C58.3949 36.4681 58.4522 37.2335 58.4521 38C58.4522 42.1552 56.7834 45.9255 54.0845 48.6706Z" fill="#D10014"/>
</g>
<defs>
<clipPath id="clip0_21_585">
<rect width="75.5905" height="76" fill="white"/>
</clipPath>
</defs>
</svg>
