<svg width="48" height="48" viewBox="0 0 48 48" fill="none" xmlns="http://www.w3.org/2000/svg">
<path d="M16.4776 48C17.2195 47.6724 17.7391 46.9155 17.7391 46.0344V40.2534C17.7391 40.0425 17.7558 39.823 17.7819 39.6003C17.7673 39.6046 17.7537 39.6078 17.7391 39.611C17.7391 39.611 14.6087 39.611 13.9826 39.611C12.4174 39.611 11.0609 38.9687 10.4348 37.684C9.70435 36.2923 9.3913 33.937 7.51304 32.6523C7.2 32.4382 7.4087 32.1171 8.03478 32.1171C8.66087 32.2241 10.0174 33.0806 10.8522 34.2582C11.7913 35.4358 12.7304 36.3993 14.4 36.3993C16.9951 36.3993 18.3861 36.2655 19.223 35.8052C20.1976 34.3181 21.5468 33.1876 22.9565 33.1876V33.1609C17.0421 32.966 13.2637 30.9491 11.5043 27.8348C7.68 27.8797 4.35026 28.2684 2.45009 28.5917C2.38957 28.2416 2.33739 27.8894 2.29252 27.535C4.16765 27.2181 7.34609 26.8424 11.0003 26.7706C10.8835 26.4752 10.7823 26.1722 10.6967 25.8617C7.03304 25.6712 3.8713 25.82 2.15374 25.9656C2.13287 25.6101 2.1047 25.2558 2.10052 24.8961C3.82122 24.7515 6.89739 24.607 10.4671 24.7772C10.3847 24.2419 10.3315 23.6949 10.3315 23.1253C10.3315 21.3054 10.9576 19.3784 12.1054 17.7725C11.5837 15.9525 10.8532 12.0985 12.3141 10.7068C15.1315 10.7068 17.1141 12.0985 18.0532 12.9549C19.8261 12.2045 21.8087 11.7763 24 11.7763C26.1913 11.7763 28.1739 12.2045 29.8435 12.9539C30.7826 12.0974 32.7652 10.7057 35.5826 10.7057C37.1478 12.2045 36.313 16.0585 35.7913 17.7714C36.9391 19.3773 37.5652 21.1973 37.4609 23.1243C37.4609 23.6424 37.4139 24.1424 37.3461 24.6327C40.9972 24.4486 44.1569 24.5963 45.9068 24.7419C45.9047 25.1027 45.8723 25.4549 45.8536 25.8114C44.1099 25.6637 40.871 25.5116 37.1311 25.7161C37.0383 26.0758 36.9256 26.4259 36.792 26.7653C40.4922 26.8145 43.7468 27.1817 45.7117 27.5029C45.6668 27.8583 45.6146 28.2105 45.5541 28.5596C43.559 28.232 40.1583 27.8487 36.289 27.8294C34.5517 30.9105 30.8421 32.92 25.0435 33.1544V33.1876C27.7565 33.1876 30.2609 37.3628 30.2609 40.2534V46.0344C30.2609 46.9155 30.7805 47.6724 31.5224 48C41.0817 44.754 48 35.5043 48 24.6231C48 11.0461 37.2344 0 24 0C10.7656 0 0 11.0461 0 24.6231C0 35.5043 6.91826 44.754 16.4776 48Z" fill="white"/>
</svg>
