<svg width="48" height="48" viewBox="0 0 48 48" fill="none" xmlns="http://www.w3.org/2000/svg">
<g clip-path="url(#clip0_21_560)">
<path d="M23.9869 0.0125848C10.7399 0.0153956 0.00333492 10.7565 0.00614575 24.0035C0.0070827 28.5905 1.3234 33.0811 3.79881 36.9428L0.0670472 46.6251C-0.131679 47.14 0.124669 47.7186 0.639615 47.9173C0.754765 47.9617 0.877037 47.9845 1.00043 47.9843C1.11493 47.9849 1.22858 47.9653 1.33623 47.9263L11.3304 44.3584C22.5748 51.3616 37.3675 47.9233 44.3706 36.6787C51.3737 25.4342 47.9355 10.6416 36.6909 3.63847C32.8793 1.26444 28.4776 0.00818114 23.9869 0.0125848Z" fill="#7FCA65"/>
<path d="M35.4223 28.0979C35.4223 28.0979 32.9737 26.8986 31.4406 26.0991C29.7057 25.2057 27.6669 26.8787 26.7075 27.8301C25.2142 27.2565 23.8504 26.3908 22.6958 25.2836C21.5884 24.1292 20.7227 22.7654 20.1493 21.272C21.1008 20.3106 22.7697 18.2738 21.8803 16.5388C21.0907 15.0037 19.8815 12.5572 19.8815 12.5552C19.7118 12.2185 19.3671 12.0059 18.99 12.0055H16.9912C14.0803 12.5083 11.9639 15.0481 11.9942 18.0019C11.9942 21.1401 15.75 27.1686 18.2825 29.703C20.8151 32.2374 26.8435 35.9913 29.9836 35.9913C32.9374 36.0217 35.4773 33.9051 35.98 30.9943V28.9955C35.9803 28.6144 35.7641 28.2663 35.4223 28.0979Z" fill="white"/>
</g>
<defs>
<clipPath id="clip0_21_560">
<rect width="48" height="48" fill="white"/>
</clipPath>
</defs>
</svg>
